<?xml version="1.0" encoding="UTF-8" standalone="no"?>
<!-- Created with Inkscape (http://www.inkscape.org/) -->

<svg
   version="1.1"
   id="svg1"
   width="206.39999"
   height="117.6"
   viewBox="0 0 206.39999 117.6"
   sodipodi:docname="logo-chandelier-dark.svg"
   inkscape:version="1.4.2 (f4327f4, 2025-05-13)"
   xmlns:inkscape="http://www.inkscape.org/namespaces/inkscape"
   xmlns:sodipodi="http://sodipodi.sourceforge.net/DTD/sodipodi-0.dtd"
   xmlns="http://www.w3.org/2000/svg"
   xmlns:svg="http://www.w3.org/2000/svg">
  <defs
     id="defs1" />
  <sodipodi:namedview
     id="namedview1"
     pagecolor="#ffffff"
     bordercolor="#000000"
     borderopacity="0.25"
     inkscape:showpageshadow="2"
     inkscape:pageopacity="0.0"
     inkscape:pagecheckerboard="0"
     inkscape:deskcolor="#d1d1d1"
     inkscape:zoom="10.637755"
     inkscape:cx="42.161151"
     inkscape:cy="63.12422"
     inkscape:window-width="3200"
     inkscape:window-height="1711"
     inkscape:window-x="-9"
     inkscape:window-y="-9"
     inkscape:window-maximized="1"
     inkscape:current-layer="g1" />
  <g
     inkscape:groupmode="layer"
     inkscape:label="Image"
     id="g1">
    <path
       style="fill:#000000"
       d="m 54.137169,79.351557 c 0,-4.619464 0.0772,-4.8 2.052593,-4.8 4.408443,0 6.247593,2.258323 3.927224,4.822302 -1.093576,1.208388 -1.093576,1.45336 0,2.360948 1.545056,1.282282 1.567743,2.41675 0.04833,2.41675 -0.644519,0 -1.557185,-0.72 -2.028147,-1.6 -0.470962,-0.88 -1.203628,-1.6 -1.628147,-1.6 -0.424519,0 -0.771853,0.72 -0.771853,1.6 0,0.88 -0.36,1.6 -0.8,1.6 -0.444444,0 -0.8,-2.133333 -0.8,-4.8 z m 4.4,-1.6 c 0,-0.586667 -0.45,-1.216667 -1,-1.4 -0.594872,-0.198291 -1,0.368889 -1,1.4 0,1.031111 0.405128,1.598291 1,1.4 0.55,-0.183333 1,-0.813333 1,-1.4 z m 5.2,1.6 c 0,-4.8 0,-4.8 3.2,-4.8 1.76,0 3.2,0.36 3.2,0.8 0,0.44 -1.08,0.8 -2.4,0.8 -1.6,0 -2.4,0.4 -2.4,1.2 0,0.666667 0.711111,1.2 1.6,1.2 0.88,0 1.6,0.36 1.6,0.8 0,0.44 -0.75,0.8 -1.666667,0.8 -2.651379,0 -1.313683,1.97002 1.528276,2.250687 3.859901,0.381196 3.029629,1.749313 -1.061609,1.749313 -3.6,0 -3.6,0 -3.6,-4.8 z m 9.248738,3 c 2.351127,-7.603921 4.271136,-8.9826 6.123456,-4.397001 2.467641,6.108885 2.483472,6.197001 1.113396,6.197001 -0.707075,0 -1.285591,-0.54 -1.285591,-1.2 0,-0.73236 -0.746045,-1.2 -1.914408,-1.2 -1.052925,0 -2.121627,0.54 -2.374893,1.2 -0.75705,1.972841 -2.286727,1.420597 -1.66196,-0.6 z m 5.151261,-2.552786 c 0,-0.194033 -0.36,-0.575279 -0.8,-0.847214 -0.439999,-0.271935 -0.799999,-0.113181 -0.799999,0.352786 0,0.465968 0.36,0.847214 0.799999,0.847214 0.44,0 0.8,-0.158754 0.8,-0.352786 z m 6.4,-0.447214 c 0,-2.666667 0.355556,-4.8 0.8,-4.8 0.44,0 0.8,1.822629 0.8,4.050287 0,3.692603 0.152392,4.028183 1.725638,3.8 0.9491,-0.137658 1.8791,0.199713 2.066666,0.749713 0.231014,0.677401 -0.583755,1 -2.525637,1 -2.866667,0 -2.866667,0 -2.866667,-4.8 z m 8.8,0.8 c 0,-3.466667 -0.213333,-4 -1.6,-4 -0.88,0 -1.6,-0.36 -1.6,-0.8 0,-0.44 1.598754,-0.8 3.552786,-0.8 1.954033,0 3.775279,0.36 4.047214,0.8 0.271935,0.44 -0.246819,0.8 -1.152786,0.8 -1.443323,0 -1.647214,0.495116 -1.647214,4 0,2.2 -0.36,4 -0.8,4 -0.44,0 -0.8,-1.8 -0.8,-4 z m 7.800002,3.135921 c -1.644212,-0.957665 -1.94487,-6.271053 -0.44,-7.775921 1.43459,-1.434592 5.01246,-1.158404 6.51601,0.502993 3.82885,4.230836 -1.1228,10.157912 -6.07601,7.272928 z m 4.58281,-2.033023 c 1.52866,-1.528652 1.33273,-3.406785 -0.47407,-4.544469 -2.94213,-1.852557 -5.480557,2.349756 -2.94874,4.881571 1.27149,1.271492 1.87351,1.212201 3.42281,-0.337102 z m 5.21719,-1.902898 c 0,-4.8 0,-4.8 2.64,-4.8 3.79587,0 6.5813,3.934665 3.56,5.028811 -0.79129,0.28656 -0.77972,0.734156 0.0554,2.144569 1.45252,2.453043 0.34093,3.238693 -1.45253,1.02662 -1.80016,-2.220329 -2.4029,-2.270497 -2.4029,-0.2 0,0.888889 -0.53334,1.6 -1.2,1.6 -0.93334,0 -1.2,-1.066667 -1.2,-4.8 z m 4.65866,-1.866293 c 0.15309,-0.789411 -0.25501,-1.333707 -1,-1.333707 -0.74211,0 -1.25866,0.683997 -1.25866,1.666667 0,1.949635 1.86942,1.674055 2.25866,-0.33296 z m -45.725328,-6.66704 c -1.776995,-1.776996 0.306493,-5.093467 2.208284,-3.51512 2.911618,2.416428 -0.443546,-10.999665 -3.679137,-14.711547 -1.329286,-1.524962 -0.587652,-2.04 2.93752,-2.04 3.327739,0 4.993604,1.14397 2.535765,1.741341 -0.835923,0.203169 -0.73325,1.011837 0.478593,3.769469 1.542826,3.510811 1.542826,3.510811 3.064234,0.112637 1.83417,-4.096751 1.829175,-4.023447 0.274194,-4.023447 -0.685968,0 -1.024721,-0.36 -0.752786,-0.8 0.619859,-1.002954 5.199999,-1.061674 5.199999,-0.06667 0,0.403333 -0.305599,0.853333 -0.67911,1 -0.733155,0.287888 -4.920889,10.359595 -4.920889,11.834981 0,3.808583 -4.76689,8.598129 -6.666667,6.698352 z M 8.9371706,64.786575 c -9.24105899,-3.229237 -9.73624699,-15.079222 -0.8,-19.144231 5.5291554,-2.515157 9.1999994,-1.331567 9.1999994,2.966356 0,2.49002 -1.040245,2.483582 -2.377292,-0.01471 -1.990858,-3.719952 -6.3563474,-2.825291 -8.0584154,1.651489 -3.134193,8.243552 4.4388454,17.687659 8.5723074,10.690265 0.784882,-1.3287 1.810316,-2.268747 2.278743,-2.088995 0.468426,0.179752 1.535409,-0.173131 2.371074,-0.784183 0.835665,-0.611053 2.554496,-1.111006 3.819624,-1.111006 2.035832,0 2.271137,-0.252094 2.047096,-2.193159 -0.265855,-2.303343 -3.053138,-3.719371 -3.053138,-1.551091 0,1.297636 -2.131365,2.404703 -3.272193,1.699632 -1.41583,-0.875031 -0.700872,-2.805223 1.324274,-3.575182 5.840845,-2.220686 9.947919,0.725558 9.947919,7.136223 0,2.194032 0.365872,4.215271 0.813049,4.491642 0.447179,0.276371 0.605932,0.837617 0.352787,1.247214 -0.631027,1.021022 -3.851418,0.939139 -4.915542,-0.124985 -0.626274,-0.626274 -1.020154,-0.626274 -1.407213,0 -1.402715,2.269641 -6.319003,0.738043 -7.55252,-2.352878 -0.789142,-1.977416 -0.789142,-1.977416 -0.839851,0.144324 -0.03919,1.639935 -0.62281,2.321175 -2.570088,3 -2.902943,1.011972 -2.729172,1.014534 -5.8806204,-0.08672 z M 25.99281,60.343385 c 0.158077,-1.107989 -0.162503,-1.791828 -0.84,-1.791828 -1.60393,0 -2.957444,1.620797 -2.452463,2.936758 0.65844,1.715866 3.000508,0.901428 3.292463,-1.14493 z m 23.310099,4.533594 c -7.408416,-2.725039 -5.1322,-14.325422 2.810921,-14.325422 7.433085,0 9.566493,10.51298 2.839352,13.99172 -2.631617,1.360862 -2.826499,1.372371 -5.650273,0.333702 z m 4.697629,-3.425631 c 1.273154,-2.612548 0.535617,-8.396901 -1.153286,-9.044994 -2.031773,-0.779664 -3.510083,1.366468 -3.510083,5.095752 0,6.368721 2.466419,8.457444 4.663369,3.949242 z m 56.336632,3.107515 c -1.66879,-0.725324 -2.6,-1.693519 -2.6,-2.703257 0,-0.865254 -0.21852,-2.142632 -0.48559,-2.838619 -0.86951,-2.265903 1.21015,-1.331858 2.47332,1.110855 1.45504,2.813734 3.88953,4.297446 5.96858,3.637581 3.35643,-1.06529 2.80477,-4.478267 -1.01819,-6.299292 -8.89801,-4.238462 -8.16929,-12.788137 1.09737,-12.874875 4.15118,-0.03886 4.25615,0.01732 4.94843,2.648029 0.96919,3.682981 0.27572,3.981291 -2.25727,0.971006 -2.77635,-3.299516 -5.42299,-3.11933 -5.76625,0.392572 -0.21522,2.201885 0.16095,2.669308 3.69692,4.593827 10.07432,5.483132 4.49501,15.948654 -6.05732,11.362173 z m 33.66299,0.02649 c -4.87697,-2.121449 -5.8126,-7.807258 -1.92453,-11.695329 3.76924,-3.769241 10.46154,-1.901557 10.46154,2.919602 0,1.816768 -0.27915,1.941936 -4.33082,1.941936 -4.33081,0 -4.33081,0 -3.74614,2.2 0.62908,2.36712 3.5619,3.435061 5.12922,1.867732 1.21536,-1.215351 2.14774,-1.080024 2.14774,0.311724 0,0.648701 -1.06213,1.728701 -2.36028,2.4 -2.77131,1.433102 -2.21991,1.42753 -5.37673,0.05434 z m 4.39265,-10.233791 c -0.1678,-1.181453 -0.80546,-1.8 -1.85564,-1.8 -1.05018,0 -1.68785,0.618547 -1.85564,1.8 -0.20971,1.476545 0.12375,1.8 1.85564,1.8 1.73189,0 2.06534,-0.323455 1.85564,-1.8 z m -115.05564,9.8 c 0,-0.44 0.36,-0.8 0.8,-0.8 1.210057,0 1.019329,-10.177671 -0.2,-10.672428 -2.145889,-0.87072 1.449614,-2.04678 5.774088,-1.888659 3.582127,0.130978 4.458891,0.438648 4.690773,1.646063 0.46176,2.404394 -1.181083,3.41982 -2.947114,1.821584 -1.939335,-1.755074 -2.517747,-0.569907 -2.517747,5.15887 0,2.964062 0.295994,3.93457 1.2,3.93457 0.66,0 1.2,0.36 1.2,0.8 0,0.44 -1.8,0.8 -4,0.8 -2.2,0 -4,-0.36 -4,-0.8 z m 26.399999,0 c 0,-0.44 0.36,-0.8 0.8,-0.8 1.561818,0 1.004678,-16.550275 -0.57758,-17.157445 -1.893653,-0.726662 0.119999,-2.013279 3.17758,-2.030304 2.2,-0.01225 2.2,-0.01225 2.2,9.587749 0,8 0.2,9.6 1.2,9.6 0.66,0 1.2,0.36 1.2,0.8 0,0.44 -1.8,0.8 -4,0.8 -2.2,0 -4,-0.36 -4,-0.8 z m 23.199999,0 c 0,-0.44 0.36,-0.8 0.8,-0.8 1.210057,0 1.019329,-10.177671 -0.2,-10.672428 -0.75254,-0.305352 -0.703048,-0.61577 0.2,-1.254417 1.475099,-1.043208 4.8,-1.142017 4.8,-0.142646 0,0.405609 1.042341,0.337069 2.34361,-0.154105 4.679124,-1.766172 6.45639,0.0524 6.45639,6.606445 0,3.211434 0.342624,5.617151 0.8,5.617151 0.44,0 0.8,0.36 0.8,0.8 0,0.44 -1.62,0.8 -3.6,0.8 -1.98,0 -3.6,-0.36 -3.6,-0.8 0,-0.44 0.377178,-0.8 0.838174,-0.8 0.520232,0 0.747828,-1.896635 0.6,-5 -0.208987,-4.387275 -0.434246,-5 -1.838174,-5 -1.911774,0 -2.833297,8.431997 -1.143981,10.467499 0.789759,0.951601 0.285306,1.132501 -3.158063,1.132501 -2.253876,0 -4.097956,-0.36 -4.097956,-0.8 z m 40.000002,0 c 0,-0.44 0.54,-0.8 1.2,-0.8 0.94359,0 1.2,-1.111111 1.2,-5.2 0,-4.088889 -0.25641,-5.2 -1.2,-5.2 -2.08395,0 -1.29806,-1.455945 1,-1.852621 10.02225,-1.729975 12.2,-0.524969 12.2,6.750577 0,4.357373 0.24965,5.502044 1.2,5.502044 0.66,0 1.2,0.36 1.2,0.8 0,0.44 -1.8,0.8 -4,0.8 -2.2,0 -4,-0.36 -4,-0.8 0,-0.44 0.36,-0.8 0.8,-0.8 0.45215,0 0.8,-2.285213 0.8,-5.255641 0,-4.992706 -0.0901,-5.242851 -1.8,-4.999999 -1.95765,0.27803 -3.35684,10.25564 -1.43818,10.25564 0.461,0 0.83818,0.36 0.83818,0.8 0,0.44 -1.8,0.8 -4,0.8 -2.2,0 -4,-0.36 -4,-0.8 z m 30.4,0 c 0,-0.44 0.54,-0.8 1.2,-0.8 1.81642,0 1.76778,-16.410939 -0.0507,-17.108758 -2.0368,-0.781593 -0.47247,-2.091242 2.49792,-2.091242 2.75279,0 2.75279,0 2.75279,9.6 0,5.866667 0.31111,9.6 0.8,9.6 0.44,0 0.8,0.36 0.8,0.8 0,0.44 -1.8,0.8 -4,0.8 -2.2,0 -4,-0.36 -4,-0.8 z m 8.8,0 c 0,-0.44 0.54,-0.8 1.2,-0.8 1.81641,0 1.76778,-16.410939 -0.0507,-17.108758 -2.0368,-0.781593 -0.47247,-2.091242 2.49792,-2.091242 2.75279,0 2.75279,0 2.75279,9.6 0,5.866667 0.31111,9.6 0.8,9.6 0.44,0 0.8,0.36 0.8,0.8 0,0.44 -1.8,0.8 -4,0.8 -2.2,0 -4,-0.36 -4,-0.8 z M 85.882524,41.230247 c -0.299946,-0.299946 -0.545356,-1.70684 -0.545356,-3.126432 0,-1.556297 -0.476442,-2.763904 -1.2,-3.041559 -0.665214,-0.255266 -1.2,-0.02265 -1.2,0.521972 0,1.287195 -3.270253,3.316685 -3.907215,2.424782 -0.271031,-0.379511 -1.522105,-1.142889 -2.780163,-1.696397 -1.697837,-0.746998 -2.181067,-1.412917 -1.874896,-2.583717 0.226866,-0.867536 0.124702,-1.577338 -0.22703,-1.577338 -1.177164,0 -1.671912,-2.645534 -1.14805,-6.138893 0.557625,-3.718511 1.937355,-4.759071 1.937355,-1.461107 0,1.1 0.45,2.011449 1,2.025442 0.562144,0.0143 0.318258,0.541041 -0.557003,1.202998 -1.825824,1.380862 -0.737434,3.098108 1.672027,2.6381 1.256526,-0.239893 1.521135,-1.174478 1.720023,-6.075024 0.269422,-6.638479 1.73203,-7.910335 1.830212,-1.591516 0.07833,5.04114 2.18757,1.609691 2.940642,-4.784024 0.260663,-2.213074 0.709226,-3.198006 1.29634,-2.846433 0.493767,0.295675 0.432733,-0.03651 -0.135632,-0.738179 -0.84452,-1.042601 -0.84452,-1.351964 0,-1.692662 0.806815,-0.325486 0.770285,-0.619003 -0.16661,-1.338701 -0.906006,-0.695971 -0.955005,-1.021219 -0.2,-1.327572 0.55,-0.2231694 1,-1.6357614 1,-3.1390954 0,-1.5033329 0.36,-2.7333329 0.8,-2.7333329 0.44,0 0.8,1.23 0.8,2.7333329 0,1.503334 0.45,2.915926 1,3.1390954 0.752972,0.305528 0.703566,0.61843 -0.2,1.266667 -0.826625,0.593038 -0.926896,1.047592 -0.322263,1.460905 0.482754,0.33 1.094197,2.476526 1.358761,4.770057 0.740007,6.415193 2.888275,9.954716 2.931472,4.829942 0.04874,-5.782056 1.526262,-4.534119 1.795478,1.516485 0.255681,5.746418 1.878546,8.176623 4.014533,6.011677 0.83082,-0.842084 0.722692,-1.26747 -0.577981,-2.273821 -1.105835,-0.855601 -1.291147,-1.353723 -0.6,-1.61281 0.55,-0.206175 1,-1.064865 1,-1.908198 0,-2.92809 1.421249,-1.513869 1.937355,1.927774 0.517785,3.452838 0.03123,6.138893 -1.112009,6.138893 -0.331909,0 -0.440465,0.852708 -0.241236,1.894908 0.29545,1.545551 -0.05539,1.999724 -1.902924,2.463427 -1.245838,0.312685 -2.506095,0.958361 -2.800572,1.434835 -0.5999,0.970658 -3.080614,-1.071519 -3.080614,-2.536028 0,-0.471428 -0.31592,-0.857142 -0.702044,-0.857142 -1.295198,0 -2.634643,2.308774 -2.182313,3.761609 0.49879,1.602064 -0.518879,3.768488 -1.370287,2.91708 z m -4.656868,-6.144325 c 1.378605,-1.661118 -0.734416,-4.081518 -2.949444,-3.378495 -2.083166,0.661171 -2.319544,3.375111 -0.339044,3.89267 2.30483,0.602315 2.370391,0.592064 3.288488,-0.514175 z m 14.570845,-0.773971 c -0.03263,-0.308216 -0.05933,-0.833797 -0.05933,-1.167956 0,-0.334159 -0.753009,-1.077824 -1.673352,-1.652588 -2.384624,-1.489223 -4.482782,1.108172 -2.590169,3.206474 1.160132,1.286216 4.468624,0.990844 4.322854,-0.38593 z M 85.253286,25.904344 c -0.07913,-5.804365 -0.135761,-5.991045 -1,-3.296592 -0.503865,1.570907 -1.524877,3.775824 -2.268917,4.899816 -1.286709,1.943782 -1.274609,2.127547 0.247691,3.761544 2.426819,2.604884 3.11326,1.385974 3.021226,-5.364768 z m 4.756918,5.399194 c 1.46948,-1.577302 1.477068,-1.774692 0.176832,-4.6 -0.747192,-1.623589 -1.759717,-3.85198 -2.250055,-4.95198 -0.756703,-1.69755 -0.899712,-1.082568 -0.945669,4.066666 -0.06662,7.46411 0.394608,8.302152 3.018892,5.485314 z m 4.126964,-3.95198 c 0,-0.586667 0.24,-0.826667 0.533333,-0.533334 0.293334,0.293334 0.293334,0.773334 0,1.066667 -0.293333,0.293333 -0.533333,0.05333 -0.533333,-0.533333 z"
       id="path1" />
  </g>
</svg>
